<?xml version="1.0" encoding="UTF-8" standalone="no"?>
<svg
   xmlns:dc="http://purl.org/dc/elements/1.1/"
   xmlns:cc="http://creativecommons.org/ns#"
   xmlns:rdf="http://www.w3.org/1999/02/22-rdf-syntax-ns#"
   xmlns:svg="http://www.w3.org/2000/svg"
   xmlns="http://www.w3.org/2000/svg"
   xmlns:sodipodi="http://sodipodi.sourceforge.net/DTD/sodipodi-0.dtd"
   xmlns:inkscape="http://www.inkscape.org/namespaces/inkscape"
   version="1.1"
   id="Layer_1"
   viewBox="0 0 512 512"
   xml:space="preserve"
   sodipodi:docname="freelancer.svg"
   inkscape:export-filename="D:\j1\github\j1-sites\j1-freelancer-2024.1.x\assets\images\icons\freelancer\freelancer-512x512.png"
   inkscape:export-xdpi="96"
   inkscape:export-ydpi="96"
   inkscape:version="1.0.1 (3bc2e813f5, 2020-09-07)"><metadata
   id="metadata25"><rdf:RDF><cc:Work
       rdf:about=""><dc:format>image/svg+xml</dc:format><dc:type
         rdf:resource="http://purl.org/dc/dcmitype/StillImage" /></cc:Work></rdf:RDF></metadata><defs
   id="defs23" /><sodipodi:namedview
   pagecolor="#ffffff"
   bordercolor="#666666"
   borderopacity="1"
   objecttolerance="10"
   gridtolerance="10"
   guidetolerance="10"
   inkscape:pageopacity="0"
   inkscape:pageshadow="2"
   inkscape:window-width="1695"
   inkscape:window-height="1023"
   id="namedview21"
   showgrid="false"
   inkscape:zoom="1.4355469"
   inkscape:cx="256"
   inkscape:cy="228.13605"
   inkscape:window-x="0"
   inkscape:window-y="0"
   inkscape:window-maximized="0"
   inkscape:current-layer="Layer_1" />
<g
   id="g6"
   style="fill:#168967">
	<circle
   style="fill:#168967"
   cx="215.825"
   cy="152.672"
   r="95.72"
   id="circle2" />
	<path
   style="fill:#168967"
   d="M10.199,455.197c0-113.562,92.06-205.622,205.622-205.622s205.622,92.06,205.622,205.622H10.199z"
   id="path4" />
</g>
<rect
   x="330.607"
   y="321.938"
   style="fill:#E8E8E8;"
   width="171.194"
   height="133.038"
   id="rect8" />
<polygon
   style="fill:#168967"
   points="471.965,265.028 361.425,265.028 330.61,321.935 501.801,321.935 "
   id="polygon10" />
<rect
   x="392.731"
   y="386.499"
   style="fill:none"
   width="46.957"
   height="68.477"
   id="rect12" />
<path
   d="M501.801,465.248c5.633,0,10.199-4.567,10.199-10.199V321.935c0-1.701-0.422-3.301-1.16-4.712  c-0.004-0.008-0.003-0.015-0.007-0.023l-0.052-0.1c-0.007-0.013-0.013-0.026-0.02-0.039l-29.763-56.768  c-1.761-3.359-5.24-5.463-9.032-5.463h-110.54c-3.743,0-7.186,2.051-8.968,5.342l-10.692,19.746  c-22.764-16.425-48.02-28.037-74.82-34.507c32.643-18.067,54.797-52.861,54.797-92.738c0-58.405-47.515-105.921-105.92-105.921  s-105.92,47.516-105.92,105.921c0,39.89,22.169,74.695,54.83,92.756c-38.119,9.198-73.089,28.683-101.515,57.082  C22.45,343.236,0,397.408,0,455.049c0,5.632,4.566,10.199,10.199,10.199H501.801z M367.501,275.228h98.296l19.141,36.508H347.732  L367.501,275.228z M130.3,152.673c0-47.157,38.364-85.522,85.521-85.522c47.156,0,85.521,38.364,85.521,85.522  c0,47.156-38.364,85.521-85.521,85.521C168.664,238.194,130.3,199.829,130.3,152.673z M215.821,259.774  c42.369,0,82.372,13.207,116.14,38.248l-10.298,19.018c-0.797,1.453-1.251,3.121-1.251,4.895v122.915H20.662  C25.994,341.9,111.491,259.774,215.821,259.774z M402.928,444.849v-48.151h26.557v48.151H402.928z M491.602,444.849h-41.719v-58.351  c0-5.632-4.566-10.199-10.199-10.199h-46.955c-5.633,0-10.199,4.567-10.199,10.199v58.351H340.81V332.134h150.791V444.849z"
   id="path14" />
<path
   d="M106.712,316.041c-4.324,3.395-8.542,7.036-12.537,10.824c-4.088,3.876-4.259,10.332-0.383,14.42  c2.006,2.114,4.702,3.181,7.403,3.181c2.519,0,5.044-0.928,7.016-2.798c3.537-3.354,7.271-6.577,11.098-9.582  c4.431-3.479,5.203-9.89,1.725-14.321C117.555,313.335,111.143,312.562,106.712,316.041z"
   id="path16" />
<path
   d="M85.284,351.132c-4.61-3.24-10.97-2.131-14.21,2.478c-13.369,19.016-22.718,40.118-27.789,62.719  c-1.233,5.497,2.222,10.952,7.719,12.185c0.752,0.168,1.502,0.249,2.242,0.249c4.667,0,8.878-3.224,9.942-7.969  c4.483-19.98,12.75-38.637,24.573-55.454C91,360.734,89.892,354.372,85.284,351.132z"
   id="path18" />
</svg>
